<?xml version="1.0" standalone="no"?>
<!DOCTYPE svg PUBLIC "-//W3C//DTD SVG 20010904//EN"
 "http://www.w3.org/TR/2001/REC-SVG-20010904/DTD/svg10.dtd">
<svg version="1.0" xmlns="http://www.w3.org/2000/svg"
 width="360.000000pt" height="269.000000pt" viewBox="0 0 360.000000 269.000000"
 preserveAspectRatio="xMidYMid meet">

<g transform="translate(0.000000,269.000000) scale(0.100000,-0.100000)"
fill="#000000" stroke="none">
<path d="M1630 2634 c-308 -55 -523 -160 -723 -353 -204 -197 -339 -448 -382
-711 -19 -121 -19 -332 0 -443 71 -409 339 -763 710 -942 121 -59 204 -87 322
-109 310 -58 622 -5 890 151 333 195 562 523 628 900 19 110 19 336 0 445 -78
449 -405 838 -835 992 -152 55 -223 67 -410 71 -96 2 -186 2 -200 -1z m312
-976 c68 -31 128 -89 165 -160 25 -48 28 -63 28 -153 0 -90 -3 -105 -28 -153
-135 -257 -502 -247 -625 16 -39 83 -38 192 1 277 44 94 118 161 210 191 65
21 181 13 249 -18z m-458 -627 c34 -32 79 -67 102 -79 179 -91 386 -59 527 82
l57 56 431 0 431 0 -6 -34 c-22 -114 -114 -319 -195 -434 -179 -251 -444 -429
-750 -504 -121 -29 -361 -36 -491 -14 -389 68 -731 318 -909 666 -48 94 -94
215 -107 285 l-6 35 428 0 427 0 61 -59z"/>
<path d="M1735 1601 c-47 -12 -87 -36 -121 -73 -54 -56 -69 -95 -69 -178 0
-64 4 -82 27 -121 52 -88 125 -131 223 -132 77 -1 140 28 193 88 87 99 83 252
-8 343 -63 64 -165 94 -245 73z m186 -66 c27 -19 54 -51 72 -85 25 -48 28 -63
24 -113 -16 -187 -237 -275 -370 -149 -92 87 -96 231 -10 313 61 59 89 70 170
66 61 -2 78 -7 114 -32z"/>
</g>
</svg>
